<mxfile host="app.diagrams.net" agent="Mozilla/5.0 (Windows NT 10.0; Win64; x64) AppleWebKit/537.36 (KHTML, like Gecko) Chrome/134.0.0.0 Safari/537.36" version="26.2.4" pages="3">
  <diagram name="Modelo Conceitual" id="sa0t1ONpzhKEPDF6zusG">
    <mxGraphModel dx="1044" dy="562" grid="1" gridSize="10" guides="1" tooltips="1" connect="1" arrows="1" fold="1" page="1" pageScale="1" pageWidth="827" pageHeight="1169" math="0" shadow="0">
      <root>
        <mxCell id="0" />
        <mxCell id="1" parent="0" />
        <mxCell id="K5vVYMxrKL6BRSCD3pWz-1" value="Cliente" style="whiteSpace=wrap;html=1;align=center;" vertex="1" parent="1">
          <mxGeometry x="10" y="70" width="150" height="70" as="geometry" />
        </mxCell>
        <mxCell id="K5vVYMxrKL6BRSCD3pWz-2" value="Produto" style="whiteSpace=wrap;html=1;align=center;" vertex="1" parent="1">
          <mxGeometry x="670" y="70" width="150" height="70" as="geometry" />
        </mxCell>
        <mxCell id="G2sPV3kaA6L4E1UB9bNJ-5" value="" style="edgeStyle=orthogonalEdgeStyle;rounded=0;orthogonalLoop=1;jettySize=auto;html=1;endArrow=none;startFill=0;" edge="1" parent="1" source="K5vVYMxrKL6BRSCD3pWz-3" target="K5vVYMxrKL6BRSCD3pWz-7">
          <mxGeometry relative="1" as="geometry" />
        </mxCell>
        <mxCell id="K5vVYMxrKL6BRSCD3pWz-3" value="Pedido" style="whiteSpace=wrap;html=1;align=center;" vertex="1" parent="1">
          <mxGeometry x="320" y="70" width="150" height="70" as="geometry" />
        </mxCell>
        <mxCell id="K5vVYMxrKL6BRSCD3pWz-4" value="Pagamento" style="whiteSpace=wrap;html=1;align=center;" vertex="1" parent="1">
          <mxGeometry x="320" y="280" width="150" height="70" as="geometry" />
        </mxCell>
        <mxCell id="K5vVYMxrKL6BRSCD3pWz-5" value="Possui" style="shape=rhombus;perimeter=rhombusPerimeter;whiteSpace=wrap;html=1;align=center;" vertex="1" parent="1">
          <mxGeometry x="210" y="80" width="80" height="50" as="geometry" />
        </mxCell>
        <mxCell id="K5vVYMxrKL6BRSCD3pWz-6" value="Possui" style="shape=rhombus;perimeter=rhombusPerimeter;whiteSpace=wrap;html=1;align=center;" vertex="1" parent="1">
          <mxGeometry x="540" y="80" width="80" height="50" as="geometry" />
        </mxCell>
        <mxCell id="G2sPV3kaA6L4E1UB9bNJ-6" value="" style="edgeStyle=orthogonalEdgeStyle;rounded=0;orthogonalLoop=1;jettySize=auto;html=1;endArrow=none;startFill=0;" edge="1" parent="1" source="K5vVYMxrKL6BRSCD3pWz-7" target="K5vVYMxrKL6BRSCD3pWz-4">
          <mxGeometry relative="1" as="geometry" />
        </mxCell>
        <mxCell id="K5vVYMxrKL6BRSCD3pWz-7" value="Possui" style="shape=rhombus;perimeter=rhombusPerimeter;whiteSpace=wrap;html=1;align=center;" vertex="1" parent="1">
          <mxGeometry x="355" y="180" width="80" height="50" as="geometry" />
        </mxCell>
        <mxCell id="G2sPV3kaA6L4E1UB9bNJ-1" value="" style="endArrow=none;html=1;rounded=0;exitX=1;exitY=0.5;exitDx=0;exitDy=0;entryX=0;entryY=0.5;entryDx=0;entryDy=0;" edge="1" parent="1" source="K5vVYMxrKL6BRSCD3pWz-1" target="K5vVYMxrKL6BRSCD3pWz-5">
          <mxGeometry relative="1" as="geometry">
            <mxPoint x="330" y="290" as="sourcePoint" />
            <mxPoint x="490" y="290" as="targetPoint" />
          </mxGeometry>
        </mxCell>
        <mxCell id="G2sPV3kaA6L4E1UB9bNJ-2" value="" style="endArrow=none;html=1;rounded=0;exitX=1;exitY=0.5;exitDx=0;exitDy=0;entryX=0;entryY=0.5;entryDx=0;entryDy=0;" edge="1" parent="1" source="K5vVYMxrKL6BRSCD3pWz-5" target="K5vVYMxrKL6BRSCD3pWz-3">
          <mxGeometry relative="1" as="geometry">
            <mxPoint x="190" y="115" as="sourcePoint" />
            <mxPoint x="220" y="115" as="targetPoint" />
          </mxGeometry>
        </mxCell>
        <mxCell id="G2sPV3kaA6L4E1UB9bNJ-3" value="" style="endArrow=none;html=1;rounded=0;exitX=1;exitY=0.5;exitDx=0;exitDy=0;entryX=0;entryY=0.5;entryDx=0;entryDy=0;" edge="1" parent="1" source="K5vVYMxrKL6BRSCD3pWz-3" target="K5vVYMxrKL6BRSCD3pWz-6">
          <mxGeometry relative="1" as="geometry">
            <mxPoint x="200" y="125" as="sourcePoint" />
            <mxPoint x="230" y="125" as="targetPoint" />
          </mxGeometry>
        </mxCell>
        <mxCell id="G2sPV3kaA6L4E1UB9bNJ-4" value="" style="endArrow=none;html=1;rounded=0;exitX=1;exitY=0.5;exitDx=0;exitDy=0;entryX=0;entryY=0.5;entryDx=0;entryDy=0;" edge="1" parent="1" source="K5vVYMxrKL6BRSCD3pWz-6" target="K5vVYMxrKL6BRSCD3pWz-2">
          <mxGeometry relative="1" as="geometry">
            <mxPoint x="210" y="135" as="sourcePoint" />
            <mxPoint x="240" y="135" as="targetPoint" />
          </mxGeometry>
        </mxCell>
        <mxCell id="G2sPV3kaA6L4E1UB9bNJ-7" value="(1, 1)" style="text;html=1;align=center;verticalAlign=middle;resizable=0;points=[];autosize=1;strokeColor=none;fillColor=none;" vertex="1" parent="1">
          <mxGeometry x="160" y="80" width="50" height="30" as="geometry" />
        </mxCell>
        <mxCell id="G2sPV3kaA6L4E1UB9bNJ-8" value="(0, N)" style="text;html=1;align=center;verticalAlign=middle;resizable=0;points=[];autosize=1;strokeColor=none;fillColor=none;" vertex="1" parent="1">
          <mxGeometry x="280" y="80" width="50" height="30" as="geometry" />
        </mxCell>
        <mxCell id="G2sPV3kaA6L4E1UB9bNJ-9" value="(0, N)" style="text;html=1;align=center;verticalAlign=middle;resizable=0;points=[];autosize=1;strokeColor=none;fillColor=none;" vertex="1" parent="1">
          <mxGeometry x="470" y="80" width="50" height="30" as="geometry" />
        </mxCell>
        <mxCell id="G2sPV3kaA6L4E1UB9bNJ-10" value="(1, N)" style="text;html=1;align=center;verticalAlign=middle;resizable=0;points=[];autosize=1;strokeColor=none;fillColor=none;" vertex="1" parent="1">
          <mxGeometry x="620" y="80" width="50" height="30" as="geometry" />
        </mxCell>
        <mxCell id="G2sPV3kaA6L4E1UB9bNJ-11" value="(1, N)" style="text;html=1;align=center;verticalAlign=middle;resizable=0;points=[];autosize=1;strokeColor=none;fillColor=none;" vertex="1" parent="1">
          <mxGeometry x="389" y="150" width="50" height="30" as="geometry" />
        </mxCell>
        <mxCell id="G2sPV3kaA6L4E1UB9bNJ-12" value="(1, 1)" style="text;html=1;align=center;verticalAlign=middle;resizable=0;points=[];autosize=1;strokeColor=none;fillColor=none;" vertex="1" parent="1">
          <mxGeometry x="389" y="240" width="50" height="30" as="geometry" />
        </mxCell>
      </root>
    </mxGraphModel>
  </diagram>
  <diagram id="-EmVfnJHiGt8bTqdFZTD" name="Modelo Lógico">
    <mxGraphModel dx="1044" dy="562" grid="1" gridSize="10" guides="1" tooltips="1" connect="1" arrows="1" fold="1" page="1" pageScale="1" pageWidth="827" pageHeight="1169" math="0" shadow="0">
      <root>
        <mxCell id="0" />
        <mxCell id="1" parent="0" />
      </root>
    </mxGraphModel>
  </diagram>
  <diagram id="thweWF7tIu5_0cm6NJN4" name="Modelo Físico">
    <mxGraphModel dx="1044" dy="562" grid="1" gridSize="10" guides="1" tooltips="1" connect="1" arrows="1" fold="1" page="1" pageScale="1" pageWidth="827" pageHeight="1169" math="0" shadow="0">
      <root>
        <mxCell id="0" />
        <mxCell id="1" parent="0" />
      </root>
    </mxGraphModel>
  </diagram>
</mxfile>
